<svg width="1200" height="630" viewBox="0 0 1200 630" fill="none" xmlns="http://www.w3.org/2000/svg">
  <rect width="1200" height="630" fill="#0a0a0f"/>
  <rect width="1200" height="630" fill="url(#mesh)" opacity="0.3"/>
  <defs>
    <linearGradient id="mesh" x1="0" y1="0" x2="1200" y2="630">
      <stop offset="0%" stop-color="#6366f1"/>
      <stop offset="50%" stop-color="#0a0a0f"/>
      <stop offset="100%" stop-color="#10b981"/>
    </linearGradient>
    <linearGradient id="iconGrad" x1="0" y1="0" x2="1" y2="1">
      <stop offset="0%" stop-color="#6366f1"/>
      <stop offset="100%" stop-color="#10b981"/>
    </linearGradient>
  </defs>
  <!-- Icon -->
  <rect x="520" y="160" width="80" height="80" rx="20" fill="url(#iconGrad)"/>
  <path d="M543 210l2-2m0 0l15-15 15 15M545 208v20a2 2 0 002 2h6m20-22l2 2m-2-2v20a2 2 0 01-2 2h-6m-12 0a2 2 0 002-2v-8a2 2 0 012-2h4a2 2 0 012 2v8a2 2 0 002 2m-12 0h12" stroke="white" stroke-width="2.5" stroke-linecap="round" stroke-linejoin="round" fill="none"/>
  <!-- Title -->
  <text x="600" y="310" text-anchor="middle" fill="white" font-family="Inter, system-ui, sans-serif" font-size="56" font-weight="800">Neo Domotique</text>
  <!-- Subtitle -->
  <text x="600" y="370" text-anchor="middle" fill="#a1a1aa" font-family="Inter, system-ui, sans-serif" font-size="24" font-weight="400">Votre maison intelligente, sans la complexité</text>
  <!-- Bottom bar -->
  <rect x="400" y="440" width="400" height="3" rx="1.5" fill="url(#iconGrad)" opacity="0.6"/>
  <!-- Tags -->
  <text x="600" y="500" text-anchor="middle" fill="#71717a" font-family="Inter, system-ui, sans-serif" font-size="18" font-weight="500">Paris &amp; Ile-de-France | Audit gratuit | Installation cle en main</text>
</svg>
